<svg xmlns="http://www.w3.org/2000/svg" viewBox="0 0 64 64">
  <circle cx="32" cy="32" r="32" fill="#0ac18e"/>
  <path fill="#fff" d="m39.7 16.4-1.2-4.8-3 .8 1.1 4.5-2.4.6-1.1-4.5-3 .8 1.1 4.6-2 .5-4.7 1.2.8 3.3 2.4-.6c1.3-.3 1.9.1 2.2 1.1l1.4 5.5.4-.1-.4.1 1.8 7.3c.1.8-.1 1.3-1 1.5l-2.4.6.3 3.8 4.7-1.2 2-.5 1.1 4.6 3-.8-1.1-4.5 2.4-.6 1.1 4.5 3-.8-1.2-4.8c5.4-1.9 8.5-4.8 7.2-10.1-1-4.2-4-5.2-7.1-5 1.6-1.5 2.3-3.3 1.5-6.7-.9-3.8-4.2-4.8-8.9-4.3zm-1.6 19.8-1.7-6.7c2.3-.6 9.3-3 10.3 1.1 1 4.2-6.3 5-8.6 5.6zm-2.5-9.8-1.5-6.1c1.9-.5 7.7-2.6 8.6 1.2.9 3.7-5.1 4.4-7.1 4.9z"/>
</svg>
