<svg xmlns="http://www.w3.org/2000/svg" viewBox="0 0 64 64">
  <circle cx="32" cy="32" r="32" fill="#f7931a"/>
  <path fill="#fff" d="M42.9 26.1c.6-4.1-2.5-6.3-6.7-7.7l1.4-5.5-3.4-.8-1.3 5.3-2.7-.6 1.3-5.4-3.4-.8-1.4 5.5-2.2-.5-4.7-1.1-.9 3.6s2.5.6 2.4.6c1.4.4 1.6 1.3 1.6 2l-1.6 6.3.4.1-.4-.1-2.2 8.8c-.2.4-.6 1-1.6.8 0 0-2.4-.6-2.4-.6l-1.6 3.9 4.4 1.1 2.4.6-1.4 5.6 3.4.8 1.4-5.5 2.7.7-1.4 5.5 3.4.8 1.4-5.6c5.8 1.1 10.2.7 12-4.6 1.5-4.3-.1-6.8-3.2-8.4 2.3-.5 4-2 4.5-5zm-8 10.8c-1.1 4.3-8.4 2-10.8 1.4l1.8-7.3c2.4.6 10.1 1.8 9 5.9zm1.1-10.9c-1 3.9-7 1.9-9 1.4l1.7-6.6c2 .5 8.3 1.5 7.3 5.2z"/>
</svg>
