<svg xmlns="http://www.w3.org/2000/svg" width="72" height="46" viewBox="0 0 72 46" role="img" aria-labelledby="title"><title id="title">Bitcoin</title><rect width="72" height="46" rx="9" fill="#fff"/><rect x=".5" y=".5" width="71" height="45" rx="8.5" fill="none" stroke="#D9E3EF"/><circle cx="36" cy="23" r="15" fill="#F7931A"/><path fill="#fff" d="M42.8 20.2c.3-2-1.2-3.1-3.2-3.8l.7-2.7-1.7-.4-.6 2.6-1.4-.3.6-2.7-1.7-.4-.7 2.7-1.1-.3-2.3-.6-.4 1.8s1.2.3 1.2.3c.7.2.8.6.8 1l-.8 3.1.2.1-.2-.1-1.1 4.3c-.1.2-.3.6-.8.5 0 0-1.2-.3-1.2-.3l-.8 1.9 2.2.5 1.2.3-.7 2.7 1.7.4.7-2.7 1.4.4-.7 2.7 1.7.4.7-2.7c2.9.6 5.1.3 6-2.3.8-2.1 0-3.3-1.6-4.1 1.1-.3 2-.9 2.2-2.3Zm-4 5c-.5 2.1-4.1 1-5.2.7l.9-3.6c1.1.3 4.9.8 4.3 2.9Zm.5-5c-.5 1.9-3.4.9-4.3.7l.8-3.3c1 .2 4 .7 3.5 2.6Z"/></svg>
