<svg xmlns="http://www.w3.org/2000/svg" viewBox="0 0 64 64">
  <circle cx="32" cy="32" r="32" fill="#111827"/>
  <path fill="url(#a)" d="M18.3 20.5a2.4 2.4 0 0 1 1.7-.7h31.2a1.2 1.2 0 0 1 .9 2L45.8 28a2.4 2.4 0 0 1-1.7.7H12.9a1.2 1.2 0 0 1-.9-2l6.3-6.2zm27.5 15.3a2.4 2.4 0 0 0-1.7-.7H12.9a1.2 1.2 0 0 0-.9 2l6.3 6.2a2.4 2.4 0 0 0 1.7.7h31.2a1.2 1.2 0 0 0 .9-2l-6.3-6.2zm-27.5 8.9A2.4 2.4 0 0 1 20 44h31.2a1.2 1.2 0 0 1 .9 2l-6.3 6.2a2.4 2.4 0 0 1-1.7.7H12.9a1.2 1.2 0 0 1-.9-2l6.3-6.2z"/>
  <defs><linearGradient id="a" x1="12" x2="52.4" y1="52.9" y2="19.7" gradientUnits="userSpaceOnUse"><stop stop-color="#00ffa3"/><stop offset=".5" stop-color="#dc1fff"/><stop offset="1" stop-color="#03e1ff"/></linearGradient></defs>
</svg>
