<svg xmlns="http://www.w3.org/2000/svg" viewBox="0 0 64 64">
  <circle cx="32" cy="32" r="32" fill="#2775ca"/>
  <circle cx="32" cy="32" r="22" fill="none" stroke="#fff" stroke-width="4"/>
  <path fill="#fff" d="M34.2 18.5v4.1c4.8.6 7.7 3.1 8.1 7.1h-5.1c-.4-1.9-2-3-4.8-3-2.9 0-4.4 1-4.4 2.6 0 1.5 1 2.2 5.5 3.1 6.2 1.2 9.2 3.3 9.2 7.8 0 4.3-3.2 7-8.5 7.7v4.1h-4.4v-4.1c-5.6-.6-8.9-3.5-9.2-8.1h5.2c.5 2.4 2.4 3.7 5.8 3.7 3.3 0 5-1 5-2.9 0-1.6-1.1-2.5-5.7-3.4-6-1.1-8.9-3.2-8.9-7.5 0-4.1 3.1-6.6 7.8-7.1v-4.1h4.4z"/>
</svg>
