<svg xmlns="http://www.w3.org/2000/svg" width="72" height="46" viewBox="0 0 72 46" role="img" aria-labelledby="title"><title id="title">USDT Tether</title><rect width="72" height="46" rx="9" fill="#fff"/><rect x=".5" y=".5" width="71" height="45" rx="8.5" fill="none" stroke="#D9E3EF"/><circle cx="36" cy="23" r="15" fill="#26A17B"/><path fill="#fff" d="M43.7 15.2H28.3v3.7h5.8v2.4c-4.7.2-8.2 1.1-8.2 2.2s3.5 2 8.2 2.2v7.1h3.8v-7.1c4.7-.2 8.2-1.1 8.2-2.2s-3.5-2-8.2-2.2v-2.4h5.8v-3.7Zm-7.7 9c-5 0-9.1-.8-9.1-1.7 0-.8 3.1-1.4 7.2-1.6v1.9c.6 0 1.2.1 1.9.1s1.3 0 1.9-.1v-1.9c4.1.2 7.2.8 7.2 1.6 0 .9-4.1 1.7-9.1 1.7Z"/></svg>
