<svg xmlns="http://www.w3.org/2000/svg" width="72" height="46" viewBox="0 0 72 46" role="img" aria-labelledby="title"><title id="title">Visa</title><rect width="72" height="46" rx="9" fill="#fff"/><rect x=".5" y=".5" width="71" height="45" rx="8.5" fill="none" stroke="#D9E3EF"/><path fill="#1434CB" d="M29.8 30.4h-4.3l2.7-16.8h4.3l-2.7 16.8Zm-7.9-16.8-4.1 11.6-.5-2.6-1.5-7.6c-.2-1-1-1.4-1.9-1.4H7.3l-.1.4c1.5.4 3.2 1 4.2 1.6l3.8 14.8h4.5l6.8-16.8h-4.6Zm33.7 16.8h4l-3.5-16.8h-3.7c-.8 0-1.5.5-1.8 1.2l-6.5 15.6h4.5l.9-2.5H55l.6 2.5Zm-4.9-5.9 2.3-6.4 1.3 6.4h-3.6Zm-6.3-6.8.6-3.6c-.8-.3-2.7-1-5-1-2.8 0-4.8 1.5-4.8 3.7 0 1.6 1.4 2.5 2.5 3 1.1.6 1.5.9 1.5 1.4 0 .8-.9 1.1-1.8 1.1-1.2 0-2.8-.4-3.7-.9l-.6 3.7c.9.4 2.5.8 4.2.8 3 0 5-1.5 5-3.9 0-1.3-.8-2.3-2.5-3.1-1-.5-1.7-.8-1.7-1.3 0-.4.5-.9 1.6-.9 1 0 2.2.3 2.9.6l.4.2Z"/><path fill="#F7B600" d="M17.3 22.6 15.8 15c-.2-1-1-1.4-1.9-1.4H7.3l-.1.4c2.6.7 4.9 1.8 6.6 3.3 1.6 1.4 2.7 3.2 3.5 5.3Z"/></svg>
